# xmcd
#
# Track frame offsets: 
#        170
#        13180
#        26624
#        39905
#        57862
#        75719
#        92672
#        107104
#        126910
#        143495
#        162606
#
# Disc length: 2334 seconds
#
# Revision: 3
# Processed by: cddbd v1.5.2PL0 Copyright (c) Steve Scherf et al.
# Submitted via: ExactAudioCopy v0.99pb4
#
DISCID=89091c0b
DTITLE=Trailer Bride - Smelling Salts
DYEAR=1998
DGENRE=Alt-Country
TTITLE0=Quit That Jealousy
TTITLE1=Wildness
TTITLE2=Porch Song
TTITLE3=South of the Border
TTITLE4=From the Rooftop
TTITLE5=Graveyard
TTITLE6=Yoohoo River
TTITLE7=Cowgirl
TTITLE8=Show Bizness
TTITLE9=Bruises for Pearls
TTITLE10=Fighting Back the Buzzards
EXTD=Melissa Swingle: vocals, guitar, mandolin, banjo, harmonica, saw\n
EXTD=Daryl White: stand-up bass, bass fiddle\nBrad Goolsby: drums, tam
EXTD=bourine, shaker thing-amajigger, spooky percussion noises\nTommy 
EXTD="Too Tall" Evans (tracks 1,8), Bryan Settle (4,6,10): guitar\nMik
EXTD=e Beard: jaw harp, organ\nGunther: barkin'\nTracks 1,2,4,6 record
EXTD=ed entirely at Yellow, Chapel Hill US-NC - all other rhythm tracks
EXTD=recorded live to 2-track by Mike Beard.\nProduced by Mike "Chees
EXTD=eman" Beard and Trailer Bride.\nMastered by Chris Stamey at Moder
EXTD=n Recording.\nCD: Bloodshot BS 031 (1998-03-24), UPC 744302003122
EXTD=
EXTT0=(Melissa Swingle)
EXTT1=(Melissa Swingle)
EXTT2=(Melissa Swingle)
EXTT3=(Melissa Swingle)
EXTT4=(Melissa Swingle)
EXTT5=(Melissa Swingle)
EXTT6=(Melissa Swingle)
EXTT7=(Melissa Swingle)
EXTT8=(Melissa Swingle)
EXTT9=(Melissa Swingle)
EXTT10=(Daryl White/Brad Goolsby/Melissa Swingle)
PLAYORDER=
